<svg width="512" height="512" viewBox="0 0 512 512" fill="none" xmlns="http://www.w3.org/2000/svg">
<rect width="512" height="512" fill="url(#paint0_linear_2_9)"/>
<path d="M353.87 361.893V412.671C353.87 422.63 310.05 430.7 256 430.7C201.95 430.7 158.13 422.63 158.13 412.671V361.893C163.364 362.69 168.729 363.104 174.182 363.104C207.167 363.104 236.623 347.991 256 324.309C275.377 347.991 304.833 363.104 337.818 363.104C343.271 363.104 348.636 362.69 353.87 361.893Z" fill="url(#paint1_linear_2_9)"/>
<path d="M174.182 363.099C232.544 363.099 279.855 315.788 279.855 257.426C279.855 199.065 232.544 151.754 174.182 151.754C115.821 151.754 68.5096 199.065 68.5096 257.426C68.5096 315.788 115.821 363.099 174.182 363.099Z" fill="url(#paint2_linear_2_9)"/>
<path d="M337.818 363.099C396.179 363.099 443.49 315.788 443.49 257.426C443.49 199.065 396.179 151.754 337.818 151.754C279.456 151.754 232.145 199.065 232.145 257.426C232.145 315.788 279.456 363.099 337.818 363.099Z" fill="url(#paint3_linear_2_9)"/>
<path d="M256 292.645C314.361 292.645 361.673 245.334 361.673 186.973C361.673 128.611 314.361 81.2998 256 81.2998C197.639 81.2998 150.327 128.611 150.327 186.973C150.327 245.334 197.639 292.645 256 292.645Z" fill="url(#paint4_linear_2_9)"/>
<defs>
<linearGradient id="paint0_linear_2_9" x1="512" y1="6.10351e-05" x2="6.10351e-05" y2="512" gradientUnits="userSpaceOnUse">
<stop stop-color="#C7F26C"/>
<stop offset="0.45" stop-color="#6FA417"/>
<stop offset="1" stop-color="#567D18"/>
</linearGradient>
<linearGradient id="paint1_linear_2_9" x1="256" y1="430.7" x2="256" y2="324.309" gradientUnits="userSpaceOnUse">
<stop stop-color="#DFF9A4"/>
<stop offset="1" stop-color="#EFFCCF"/>
</linearGradient>
<linearGradient id="paint2_linear_2_9" x1="99.4599" y1="332.149" x2="248.91" y2="182.699" gradientUnits="userSpaceOnUse">
<stop stop-color="#DFF9A4"/>
<stop offset="1" stop-color="#F9FEE9"/>
</linearGradient>
<linearGradient id="paint3_linear_2_9" x1="263.095" y1="332.149" x2="412.54" y2="182.699" gradientUnits="userSpaceOnUse">
<stop stop-color="#DFF9A4"/>
<stop offset="1" stop-color="#F9FEE9"/>
</linearGradient>
<linearGradient id="paint4_linear_2_9" x1="181.278" y1="261.7" x2="330.722" y2="112.25" gradientUnits="userSpaceOnUse">
<stop stop-color="#DFF9A4"/>
<stop offset="1" stop-color="#F9FEE9"/>
</linearGradient>
</defs>
</svg>
